 <svg width="12" height="12" viewBox="0 0 12 12" fill="none" xmlns="http://www.w3.org/2000/svg">
                    <g clipPath="url(#clip0_6_642)">
                      <path
                        d="M6 12C2.68613 12 0 9.31388 0 6C0 2.68613 2.68613 0 6 0C9.31388 0 12 2.68613 12 6C12 9.31388 9.31388 12 6 12ZM4.5435 5.4015L6 3.945L7.45725 5.40225L8.30475 4.55475L6 2.25L3.696 4.554L4.5435 5.4015ZM2.25 6L3.0975 6.8475L3.945 6L3.0975 5.1525L2.25 6ZM4.5435 6.5985L3.69487 7.44488L3.696 7.446L6 9.75L8.30475 7.44525L7.45725 6.59737L6 8.055L4.5435 6.5985ZM8.055 6L8.9025 6.8475L9.75 6L8.9025 5.1525L8.055 6ZM6.8595 5.99925L6 5.13975L5.36438 5.775L5.29125 5.84812L5.14087 5.99887L5.13937 6L5.14087 6.00113L5.99962 6.86025L6.85987 6.00037L6.86025 6L6.8595 5.99925Z"
                        fill= "#4F018B"
                      />
                    </g>
                    <defs>
                      <clipPath id="clip0_6_642">
                        <rect width="12" height="12" fill="white" />
                      </clipPath>
                    </defs>
</svg>