<svg width="12" height="12" viewBox="0 0 12 12" fill="none" xmlns="http://www.w3.org/2000/svg">
<g clip-path="url(#clip0_6_639)">
<path d="M6 0C9.31388 0 12 2.68613 12 6C12 9.31388 9.31388 12 6 12C2.68613 12 0 9.31388 0 6C0 2.68613 2.68613 0 6 0ZM4.07625 2.87325L2.48513 3.76275C2.41361 3.79974 2.35377 3.85585 2.31225 3.92484C2.27074 3.99383 2.24919 4.07299 2.25 4.1535V5.946C2.25 6.108 2.33288 6.25612 2.48513 6.33712L4.07662 7.22662C4.215 7.30725 4.395 7.30725 4.54688 7.22662L5.6265 6.61987L6.35962 6.20212L7.43925 5.59575C7.57762 5.51475 7.75725 5.51475 7.9095 5.59575L8.75362 6.0675C8.89237 6.14813 8.98875 6.29625 8.98875 6.45825V7.41525C8.98875 7.57688 8.90625 7.725 8.75362 7.806L7.90987 8.29125C7.77113 8.37225 7.59112 8.37225 7.43925 8.29125L6.59513 7.8195C6.45638 7.7385 6.35962 7.59037 6.35962 7.42875V6.8085L5.6265 7.22662V7.8465C5.6265 8.00813 5.70937 8.15662 5.86162 8.23725L7.45312 9.12675C7.5915 9.20775 7.77112 9.20775 7.92338 9.12675L9.51487 8.23725C9.65325 8.15662 9.75 8.0085 9.75 7.8465V6.054C9.75081 5.97349 9.72926 5.89433 9.68775 5.82534C9.64623 5.75636 9.58639 5.70024 9.51487 5.66325L7.90987 4.75987C7.77113 4.67925 7.59112 4.67925 7.43925 4.75987L6.35962 5.38013L5.6265 5.78438L4.54688 6.40425C4.4085 6.48525 4.22888 6.48525 4.07662 6.40425L3.21863 5.919C3.08025 5.83838 2.9835 5.69025 2.9835 5.52825V4.57125C2.9835 4.40963 3.06638 4.2615 3.21863 4.1805L4.06238 3.70875C4.20113 3.62775 4.38112 3.62775 4.53337 3.70875L5.37712 4.1805C5.51587 4.2615 5.61263 4.40963 5.61263 4.57125V5.1915L6.34575 4.77338V4.1535C6.34656 4.07299 6.32501 3.99383 6.2835 3.92484C6.24198 3.85585 6.18214 3.79974 6.11063 3.76275L4.54688 2.87325C4.4085 2.79225 4.22888 2.79225 4.07662 2.87325H4.07625Z" fill="#4F018B"/>
</g>
<defs>
<clipPath id="clip0_6_639">
<rect width="12" height="12" fill="white"/>
</clipPath>
</defs>
</svg>
